<?xml version="1.0" encoding="UTF-8" standalone="no" ?>
<!DOCTYPE svg PUBLIC "-//W3C//DTD SVG 1.1//EN" "http://www.w3.org/Graphics/SVG/1.1/DTD/svg11.dtd">
<svg xmlns="http://www.w3.org/2000/svg" xmlns:xlink="http://www.w3.org/1999/xlink" version="1.1" width="1300" height="200" viewBox="0 0 1300 200" xml:space="preserve">
<desc>Created with Fabric.js 5.2.4</desc>
<defs>
</defs>
<g transform="matrix(Infinity NaN NaN Infinity 0 0)" id="509ad69d-200a-4539-9f0c-504196ab29bf"  >
</g>
<g transform="matrix(1 0 0 1 650 100)" id="51904e8f-ceb9-4b10-ad98-960f2b13310c"  >
<rect style="stroke: none; stroke-width: 1; stroke-dasharray: none; stroke-linecap: butt; stroke-dashoffset: 0; stroke-linejoin: miter; stroke-miterlimit: 4; fill: rgb(255,255,255); fill-rule: nonzero; opacity: 1; visibility: hidden;" vector-effect="non-scaling-stroke"  x="-650" y="-100" rx="0" ry="0" width="1300" height="200" />
</g>
<g transform="matrix(1.31 0 0 1.31 650 100)"  >
<g style="" vector-effect="non-scaling-stroke"   >
		<g transform="matrix(1 0 0 1 -357.75 -17.15)"  >
<rect style="stroke: none; stroke-width: 1; stroke-dasharray: none; stroke-linecap: butt; stroke-dashoffset: 0; stroke-linejoin: miter; stroke-miterlimit: 4; fill: rgb(255,255,255); fill-opacity: 0; fill-rule: nonzero; opacity: 1;" vector-effect="non-scaling-stroke"  x="-50" y="-50" rx="0" ry="0" width="100" height="100" />
</g>
		<g transform="matrix(1 0 0 1 -152.81 -35.54)"  >
<path style="stroke: none; stroke-width: 1; stroke-dasharray: none; stroke-linecap: butt; stroke-dashoffset: 0; stroke-linejoin: miter; stroke-miterlimit: 4; fill: rgb(255,255,255); fill-rule: nonzero; opacity: 1;" vector-effect="non-scaling-stroke"  transform=" translate(-254.94, -31.61)" d="M 234.3 3.767 L 251.63 3.767 Q 262.75 3.767 268.46 6.8870000000000005 Q 274.16999999999996 10.017 274.16999999999996 17.857 Q 274.16999999999996 21.017 273.16999999999996 23.576999999999998 Q 272.15999999999997 26.127 270.24999999999994 27.767 Q 268.34999999999997 29.397 265.60999999999996 29.897 L 265.60999999999996 30.276999999999997 Q 268.38999999999993 30.846999999999998 270.62999999999994 32.236999999999995 Q 272.87999999999994 33.626999999999995 274.22999999999996 36.276999999999994 Q 275.58 38.916999999999994 275.58 43.297 Q 275.58 48.367 273.10999999999996 51.986999999999995 Q 270.62999999999994 55.60699999999999 266.03999999999996 57.526999999999994 Q 261.45 59.446999999999996 255.12999999999997 59.446999999999996 L 234.3 59.446999999999996 Z M 246.11 25.817 L 252.96 25.817 Q 258.1 25.817 260.08 24.197 Q 262.06 22.587 262.06 19.416999999999998 Q 262.06 16.226999999999997 259.72 14.836999999999998 Q 257.38000000000005 13.446999999999997 252.31000000000003 13.446999999999997 L 246.11000000000004 13.446999999999997 Z M 246.11 35.187 L 246.11 49.696999999999996 L 253.8 49.696999999999996 Q 259.13 49.696999999999996 261.23 47.647 Q 263.32 45.586999999999996 263.32 42.117 Q 263.32 40.067 262.40999999999997 38.507 Q 261.48999999999995 36.937 259.34 36.067 Q 257.19 35.187 253.42 35.187 Z" stroke-linecap="round" />
</g>
		<g transform="matrix(1 0 0 1 -152.31 -35.05)"  >
<rect style="stroke: none; stroke-width: 1; stroke-dasharray: none; stroke-linecap: butt; stroke-dashoffset: 0; stroke-linejoin: miter; stroke-miterlimit: 4; fill: none; fill-rule: nonzero; opacity: 1;" vector-effect="non-scaling-stroke"  x="-20.64" y="-27.84" rx="0" ry="0" width="41.28" height="55.68" />
</g>
		<g transform="matrix(1 0 0 1 -102.16 -35.66)"  >
<path style="stroke: none; stroke-width: 1; stroke-dasharray: none; stroke-linecap: butt; stroke-dashoffset: 0; stroke-linejoin: miter; stroke-miterlimit: 4; fill: rgb(255,255,255); fill-rule: nonzero; opacity: 1;" vector-effect="non-scaling-stroke"  transform=" translate(-305.59, -31.49)" d="M 319.78 59.447 L 315.73999999999995 46.197 L 295.43999999999994 46.197 L 291.3999999999999 59.447 L 278.6799999999999 59.447 L 298.3399999999999 3.537000000000006 L 312.7699999999999 3.537000000000006 L 332.49999999999994 59.447 Z M 312.91999999999996 36.297000000000004 L 308.89 23.347000000000005 Q 308.5 22.047000000000004 307.88 20.017000000000003 Q 307.25 17.977000000000004 306.62 15.857000000000003 Q 305.99 13.747000000000003 305.61 12.187000000000003 Q 305.23 13.747000000000003 304.56 16.047000000000004 Q 303.9 18.357000000000003 303.29 20.417000000000005 Q 302.68 22.467000000000006 302.41 23.347000000000005 L 298.41 36.297000000000004 Z" stroke-linecap="round" />
</g>
		<g transform="matrix(1 0 0 1 -101.66 -35.15)"  >
<rect style="stroke: none; stroke-width: 1; stroke-dasharray: none; stroke-linecap: butt; stroke-dashoffset: 0; stroke-linejoin: miter; stroke-miterlimit: 4; fill: none; fill-rule: nonzero; opacity: 1;" vector-effect="non-scaling-stroke"  x="-26.91" y="-27.955" rx="0" ry="0" width="53.82" height="55.91" />
</g>
		<g transform="matrix(1 0 0 1 -50.52 -35.56)"  >
<path style="stroke: none; stroke-width: 1; stroke-dasharray: none; stroke-linecap: butt; stroke-dashoffset: 0; stroke-linejoin: miter; stroke-miterlimit: 4; fill: rgb(255,255,255); fill-rule: nonzero; opacity: 1;" vector-effect="non-scaling-stroke"  transform=" translate(-357.23, -31.59)" d="M 362.14 12.797 Q 358.75 12.797 356.15 14.107000000000001 Q 353.53999999999996 15.427000000000001 351.77 17.897000000000002 Q 349.99 20.377000000000002 349.08 23.877000000000002 Q 348.16999999999996 27.377000000000002 348.16999999999996 31.757 Q 348.16999999999996 37.667 349.62999999999994 41.837 Q 351.09999999999997 46.007000000000005 354.17999999999995 48.197 Q 357.2699999999999 50.387 362.13999999999993 50.387 Q 365.5299999999999 50.387 368.93999999999994 49.627 Q 372.34999999999997 48.867000000000004 376.34999999999997 47.457 L 376.34999999999997 57.357 Q 372.65999999999997 58.877 369.08 59.547 Q 365.5 60.206999999999994 361.03999999999996 60.206999999999994 Q 352.42999999999995 60.206999999999994 346.89 56.64699999999999 Q 341.34999999999997 53.08699999999999 338.68 46.67699999999999 Q 336.02 40.25699999999999 336.02 31.68699999999999 Q 336.02 25.36699999999999 337.72999999999996 20.106999999999992 Q 339.43999999999994 14.846999999999994 342.75999999999993 11.006999999999993 Q 346.06999999999994 7.156999999999993 350.94999999999993 5.066999999999992 Q 355.81999999999994 2.966999999999992 362.13999999999993 2.966999999999992 Q 366.29999999999995 2.966999999999992 370.4699999999999 4.016999999999992 Q 374.6399999999999 5.066999999999993 378.43999999999994 6.8869999999999925 L 374.63999999999993 16.48699999999999 Q 371.50999999999993 15.00699999999999 368.3499999999999 13.896999999999991 Q 365.1899999999999 12.796999999999992 362.13999999999993 12.796999999999992" stroke-linecap="round" />
</g>
		<g transform="matrix(1 0 0 1 -50.02 -35.06)"  >
<rect style="stroke: none; stroke-width: 1; stroke-dasharray: none; stroke-linecap: butt; stroke-dashoffset: 0; stroke-linejoin: miter; stroke-miterlimit: 4; fill: none; fill-rule: nonzero; opacity: 1;" vector-effect="non-scaling-stroke"  x="-21.21" y="-28.62" rx="0" ry="0" width="42.42" height="57.24" />
</g>
		<g transform="matrix(1 0 0 1 -0.67 -35.66)"  >
<path style="stroke: none; stroke-width: 1; stroke-dasharray: none; stroke-linecap: butt; stroke-dashoffset: 0; stroke-linejoin: miter; stroke-miterlimit: 4; fill: rgb(255,255,255); fill-rule: nonzero; opacity: 1;" vector-effect="non-scaling-stroke"  transform=" translate(-407.08, -31.49)" d="M 421.27 59.447 L 417.22999999999996 46.197 L 396.92999999999995 46.197 L 392.88999999999993 59.447 L 380.1699999999999 59.447 L 399.8299999999999 3.537000000000006 L 414.25999999999993 3.537000000000006 L 433.98999999999995 59.447 Z M 414.40999999999997 36.297000000000004 L 410.38 23.347000000000005 Q 409.99 22.047000000000004 409.37 20.017000000000003 Q 408.74 17.977000000000004 408.11 15.857000000000003 Q 407.48 13.747000000000003 407.1 12.187000000000003 Q 406.72 13.747000000000003 406.05 16.047000000000004 Q 405.39 18.357000000000003 404.78000000000003 20.417000000000005 Q 404.17 22.467000000000006 403.90000000000003 23.347000000000005 L 399.90000000000003 36.297000000000004 Z" stroke-linecap="round" />
</g>
		<g transform="matrix(1 0 0 1 -0.17 -35.15)"  >
<rect style="stroke: none; stroke-width: 1; stroke-dasharray: none; stroke-linecap: butt; stroke-dashoffset: 0; stroke-linejoin: miter; stroke-miterlimit: 4; fill: none; fill-rule: nonzero; opacity: 1;" vector-effect="non-scaling-stroke"  x="-26.91" y="-27.955" rx="0" ry="0" width="53.82" height="55.91" />
</g>
		<g transform="matrix(1 0 0 1 49.42 -35.54)"  >
<path style="stroke: none; stroke-width: 1; stroke-dasharray: none; stroke-linecap: butt; stroke-dashoffset: 0; stroke-linejoin: miter; stroke-miterlimit: 4; fill: rgb(255,255,255); fill-rule: nonzero; opacity: 1;" vector-effect="non-scaling-stroke"  transform=" translate(-457.18, -31.61)" d="M 439.98 59.447 L 439.98 3.767 L 451.79 3.767 L 451.79 49.697 L 474.37 49.697 L 474.37 59.447 Z" stroke-linecap="round" />
</g>
		<g transform="matrix(1 0 0 1 49.92 -35.05)"  >
<rect style="stroke: none; stroke-width: 1; stroke-dasharray: none; stroke-linecap: butt; stroke-dashoffset: 0; stroke-linejoin: miter; stroke-miterlimit: 4; fill: none; fill-rule: nonzero; opacity: 1;" vector-effect="non-scaling-stroke"  x="-17.195" y="-27.84" rx="0" ry="0" width="34.39" height="55.68" />
</g>
		<g transform="matrix(1 0 0 1 98.09 -35.54)"  >
<path style="stroke: none; stroke-width: 1; stroke-dasharray: none; stroke-linecap: butt; stroke-dashoffset: 0; stroke-linejoin: miter; stroke-miterlimit: 4; fill: rgb(255,255,255); fill-rule: nonzero; opacity: 1;" vector-effect="non-scaling-stroke"  transform=" translate(-505.84, -31.61)" d="M 528.66 59.447 L 516.89 59.447 L 516.89 35.417 L 494.84 35.417 L 494.84 59.447 L 483.03 59.447 L 483.03 3.767 L 494.84 3.767 L 494.84 25.587 L 516.89 25.587 L 516.89 3.767 L 528.66 3.767 Z" stroke-linecap="round" />
</g>
		<g transform="matrix(1 0 0 1 98.59 -35.05)"  >
<rect style="stroke: none; stroke-width: 1; stroke-dasharray: none; stroke-linecap: butt; stroke-dashoffset: 0; stroke-linejoin: miter; stroke-miterlimit: 4; fill: none; fill-rule: nonzero; opacity: 1;" vector-effect="non-scaling-stroke"  x="-22.815" y="-27.84" rx="0" ry="0" width="45.63" height="55.68" />
</g>
		<g transform="matrix(1 0 0 1 153.85 -35.66)"  >
<path style="stroke: none; stroke-width: 1; stroke-dasharray: none; stroke-linecap: butt; stroke-dashoffset: 0; stroke-linejoin: miter; stroke-miterlimit: 4; fill: rgb(255,255,255); fill-rule: nonzero; opacity: 1;" vector-effect="non-scaling-stroke"  transform=" translate(-561.6, -31.49)" d="M 575.79 59.447 L 571.75 46.197 L 551.45 46.197 L 547.4100000000001 59.447 L 534.69 59.447 L 554.34 3.537000000000006 L 568.7800000000001 3.537000000000006 L 588.5100000000001 59.447 Z M 568.93 36.297000000000004 L 564.89 23.347000000000005 Q 564.51 22.047000000000004 563.89 20.017000000000003 Q 563.26 17.977000000000004 562.63 15.857000000000003 Q 562 13.747000000000003 561.62 12.187000000000003 Q 561.24 13.747000000000003 560.57 16.047000000000004 Q 559.9100000000001 18.357000000000003 559.3000000000001 20.417000000000005 Q 558.69 22.467000000000006 558.4200000000001 23.347000000000005 L 554.4200000000001 36.297000000000004 Z" stroke-linecap="round" />
</g>
		<g transform="matrix(1 0 0 1 154.35 -35.15)"  >
<rect style="stroke: none; stroke-width: 1; stroke-dasharray: none; stroke-linecap: butt; stroke-dashoffset: 0; stroke-linejoin: miter; stroke-miterlimit: 4; fill: none; fill-rule: nonzero; opacity: 1;" vector-effect="non-scaling-stroke"  x="-26.91" y="-27.955" rx="0" ry="0" width="53.82" height="55.91" />
</g>
		<g transform="matrix(1 0 0 1 209.22 -35.16)"  >
<path style="stroke: none; stroke-width: 1; stroke-dasharray: none; stroke-linecap: butt; stroke-dashoffset: 0; stroke-linejoin: miter; stroke-miterlimit: 4; fill: rgb(255,255,255); fill-rule: nonzero; opacity: 1;" vector-effect="non-scaling-stroke"  transform=" translate(-616.97, -31.99)" d="M 639.82 3.767 L 639.82 39.797000000000004 Q 639.82 45.547000000000004 637.2900000000001 50.17700000000001 Q 634.7600000000001 54.80700000000001 629.6400000000001 57.507000000000005 Q 624.5100000000001 60.20700000000001 616.7400000000001 60.20700000000001 Q 605.7000000000002 60.20700000000001 599.9100000000001 54.577000000000005 Q 594.1200000000001 48.937000000000005 594.1200000000001 39.647000000000006 L 594.1200000000001 3.767 L 605.8900000000001 3.767 L 605.8900000000001 37.857000000000006 Q 605.8900000000001 44.74700000000001 608.7100000000002 47.52700000000001 Q 611.5300000000002 50.30700000000001 617.0500000000002 50.30700000000001 Q 620.9300000000002 50.30700000000001 623.3500000000001 48.97700000000001 Q 625.7700000000001 47.64700000000001 626.9100000000001 44.86700000000001 Q 628.0600000000001 42.08700000000001 628.0600000000001 37.777000000000015 L 628.0600000000001 3.767 Z" stroke-linecap="round" />
</g>
		<g transform="matrix(1 0 0 1 209.72 -34.66)"  >
<rect style="stroke: none; stroke-width: 1; stroke-dasharray: none; stroke-linecap: butt; stroke-dashoffset: 0; stroke-linejoin: miter; stroke-miterlimit: 4; fill: none; fill-rule: nonzero; opacity: 1;" vector-effect="non-scaling-stroke"  x="-22.85" y="-28.22" rx="0" ry="0" width="45.7" height="56.44" />
</g>
		<g transform="matrix(1 0 0 1 283.84 -35.66)"  >
<path style="stroke: none; stroke-width: 1; stroke-dasharray: none; stroke-linecap: butt; stroke-dashoffset: 0; stroke-linejoin: miter; stroke-miterlimit: 4; fill: rgb(255,255,255); fill-rule: nonzero; opacity: 1;" vector-effect="non-scaling-stroke"  transform=" translate(-691.59, -31.49)" d="M 705.78 59.447 L 701.74 46.197 L 681.44 46.197 L 677.4100000000001 59.447 L 664.6800000000001 59.447 L 684.34 3.537000000000006 L 698.77 3.537000000000006 L 718.5 59.447 Z M 698.92 36.297000000000004 L 694.89 23.347000000000005 Q 694.51 22.047000000000004 693.88 20.017000000000003 Q 693.25 17.977000000000004 692.62 15.857000000000003 Q 691.99 13.747000000000003 691.61 12.187000000000003 Q 691.23 13.747000000000003 690.5600000000001 16.047000000000004 Q 689.9000000000001 18.357000000000003 689.2900000000001 20.417000000000005 Q 688.6800000000001 22.467000000000006 688.4100000000001 23.347000000000005 L 684.4100000000001 36.297000000000004 Z" stroke-linecap="round" />
</g>
		<g transform="matrix(1 0 0 1 284.34 -35.15)"  >
<rect style="stroke: none; stroke-width: 1; stroke-dasharray: none; stroke-linecap: butt; stroke-dashoffset: 0; stroke-linejoin: miter; stroke-miterlimit: 4; fill: none; fill-rule: nonzero; opacity: 1;" vector-effect="non-scaling-stroke"  x="-26.91" y="-27.955" rx="0" ry="0" width="53.82" height="55.91" />
</g>
		<g transform="matrix(1 0 0 1 -143.68 30.57)"  >
<path style="stroke: none; stroke-width: 1; stroke-dasharray: none; stroke-linecap: butt; stroke-dashoffset: 0; stroke-linejoin: miter; stroke-miterlimit: 4; fill: rgb(255,255,255); fill-rule: nonzero; opacity: 1;" vector-effect="non-scaling-stroke"  transform=" translate(-264.07, -97.72)" d="M 257.87 125.557 L 244.47 81.867 L 244.13 81.867 Q 244.2 83.437 244.37 86.577 Q 244.54 89.717 244.70000000000002 93.257 Q 244.85000000000002 96.79700000000001 244.85000000000002 99.65700000000001 L 244.85000000000002 125.55700000000002 L 234.3 125.55700000000002 L 234.3 69.87700000000001 L 250.37 69.87700000000001 L 263.55 112.45700000000001 L 263.78000000000003 112.45700000000001 L 277.75000000000006 69.87700000000001 L 293.83000000000004 69.87700000000001 L 293.83000000000004 125.55700000000002 L 282.82000000000005 125.55700000000002 L 282.82000000000005 99.19700000000002 Q 282.82000000000005 96.56700000000002 282.9200000000001 93.14700000000002 Q 283.01000000000005 89.71700000000001 283.1600000000001 86.61700000000002 Q 283.3200000000001 83.50700000000002 283.3900000000001 81.94700000000002 L 283.0500000000001 81.94700000000002 L 268.6900000000001 125.55700000000002 Z" stroke-linecap="round" />
</g>
		<g transform="matrix(1 0 0 1 -143.19 31.07)"  >
<rect style="stroke: none; stroke-width: 1; stroke-dasharray: none; stroke-linecap: butt; stroke-dashoffset: 0; stroke-linejoin: miter; stroke-miterlimit: 4; fill: none; fill-rule: nonzero; opacity: 1;" vector-effect="non-scaling-stroke"  x="-29.765" y="-27.84" rx="0" ry="0" width="59.53" height="55.68" />
</g>
		<g transform="matrix(1 0 0 1 -76.89 30.51)"  >
<path style="stroke: none; stroke-width: 1; stroke-dasharray: none; stroke-linecap: butt; stroke-dashoffset: 0; stroke-linejoin: miter; stroke-miterlimit: 4; fill: rgb(255,255,255); fill-rule: nonzero; opacity: 1;" vector-effect="non-scaling-stroke"  transform=" translate(-330.86, -97.66)" d="M 357.37 97.637 Q 357.37 104.077 355.77 109.34700000000001 Q 354.16999999999996 114.62700000000001 350.90999999999997 118.43700000000001 Q 347.65999999999997 122.23700000000001 342.66999999999996 124.27700000000002 Q 337.67999999999995 126.31700000000002 330.85999999999996 126.31700000000002 Q 324.03999999999996 126.31700000000002 319.04999999999995 124.27700000000002 Q 314.06999999999994 122.23700000000001 310.80999999999995 118.43700000000001 Q 307.54999999999995 114.62700000000001 305.94999999999993 109.32700000000001 Q 304.3499999999999 104.037 304.3499999999999 97.56700000000001 Q 304.3499999999999 88.917 307.1899999999999 82.49700000000001 Q 310.02999999999986 76.07700000000003 315.9299999999999 72.537 Q 321.82999999999987 68.997 330.9399999999999 68.997 Q 339.9999999999999 68.997 345.8499999999999 72.537 Q 351.6899999999999 76.07700000000001 354.5299999999999 82.51700000000001 Q 357.36999999999995 88.95700000000001 357.3699999999999 97.63700000000001 M 316.7299999999999 97.63700000000001 Q 316.7299999999999 103.46700000000001 318.19999999999993 107.67700000000002 Q 319.6599999999999 111.88700000000001 322.7899999999999 114.14700000000002 Q 325.9099999999999 116.41700000000002 330.8599999999999 116.41700000000002 Q 335.8899999999999 116.41700000000002 339.0099999999999 114.14700000000002 Q 342.1299999999999 111.88700000000001 343.5599999999999 107.67700000000002 Q 344.9899999999999 103.46700000000003 344.9899999999999 97.63700000000003 Q 344.9899999999999 88.87700000000002 341.7199999999999 83.84700000000004 Q 338.43999999999994 78.82700000000004 330.93999999999994 78.82700000000004 Q 325.94999999999993 78.82700000000004 322.80999999999995 81.08700000000005 Q 319.65999999999997 83.35700000000004 318.19999999999993 87.56700000000005 Q 316.7299999999999 91.77700000000004 316.7299999999999 97.63700000000006" stroke-linecap="round" />
</g>
		<g transform="matrix(1 0 0 1 -76.39 31.01)"  >
<rect style="stroke: none; stroke-width: 1; stroke-dasharray: none; stroke-linecap: butt; stroke-dashoffset: 0; stroke-linejoin: miter; stroke-miterlimit: 4; fill: none; fill-rule: nonzero; opacity: 1;" vector-effect="non-scaling-stroke"  x="-26.51" y="-28.66" rx="0" ry="0" width="53.02" height="57.32" />
</g>
		<g transform="matrix(1 0 0 1 -16.76 30.57)"  >
<path style="stroke: none; stroke-width: 1; stroke-dasharray: none; stroke-linecap: butt; stroke-dashoffset: 0; stroke-linejoin: miter; stroke-miterlimit: 4; fill: rgb(255,255,255); fill-rule: nonzero; opacity: 1;" vector-effect="non-scaling-stroke"  transform=" translate(-390.99, -97.72)" d="M 414.09 97.177 Q 414.09 106.587 410.48999999999995 112.887 Q 406.88999999999993 119.197 400.0799999999999 122.377 Q 393.25999999999993 125.557 383.6599999999999 125.557 L 367.88999999999993 125.557 L 367.88999999999993 69.87700000000001 L 385.37999999999994 69.87700000000001 Q 394.13999999999993 69.87700000000001 400.56999999999994 72.977 Q 407.00999999999993 76.077 410.54999999999995 82.15700000000001 Q 414.09 88.227 414.09 97.177 M 401.83 97.48700000000001 Q 401.83 91.31700000000001 400.02 87.337 Q 398.21 83.357 394.69 81.447 Q 391.17 79.547 385.99 79.547 L 379.7 79.547 L 379.7 115.80699999999999 L 384.77 115.80699999999999 Q 393.40999999999997 115.80699999999999 397.62 111.19699999999999 Q 401.83 106.58699999999999 401.83 97.487" stroke-linecap="round" />
</g>
		<g transform="matrix(1 0 0 1 -16.26 31.07)"  >
<rect style="stroke: none; stroke-width: 1; stroke-dasharray: none; stroke-linecap: butt; stroke-dashoffset: 0; stroke-linejoin: miter; stroke-miterlimit: 4; fill: none; fill-rule: nonzero; opacity: 1;" vector-effect="non-scaling-stroke"  x="-23.1" y="-27.84" rx="0" ry="0" width="46.2" height="55.68" />
</g>
		<g transform="matrix(1 0 0 1 36.77 30.45)"  >
<path style="stroke: none; stroke-width: 1; stroke-dasharray: none; stroke-linecap: butt; stroke-dashoffset: 0; stroke-linejoin: miter; stroke-miterlimit: 4; fill: rgb(255,255,255); fill-rule: nonzero; opacity: 1;" vector-effect="non-scaling-stroke"  transform=" translate(-444.52, -97.6)" d="M 458.71 125.557 L 454.66999999999996 112.297 L 434.36999999999995 112.297 L 430.3299999999999 125.557 L 417.6099999999999 125.557 L 437.2599999999999 69.647 L 451.6999999999999 69.647 L 471.4299999999999 125.557 Z M 451.84999999999997 102.397 L 447.80999999999995 89.447 Q 447.42999999999995 88.157 446.79999999999995 86.117 Q 446.17999999999995 84.077 445.54999999999995 81.967 Q 444.91999999999996 79.857 444.53999999999996 78.28699999999999 Q 444.15999999999997 79.85699999999999 443.48999999999995 82.157 Q 442.81999999999994 84.45700000000001 442.21 86.517 Q 441.60999999999996 88.577 441.34 89.447 L 437.34 102.397 Z" stroke-linecap="round" />
</g>
		<g transform="matrix(1 0 0 1 37.27 30.95)"  >
<rect style="stroke: none; stroke-width: 1; stroke-dasharray: none; stroke-linecap: butt; stroke-dashoffset: 0; stroke-linejoin: miter; stroke-miterlimit: 4; fill: none; fill-rule: nonzero; opacity: 1;" vector-effect="non-scaling-stroke"  x="-26.91" y="-27.955" rx="0" ry="0" width="53.82" height="55.91" />
</g>
		<g transform="matrix(1 0 0 1 112.02 30.57)"  >
<path style="stroke: none; stroke-width: 1; stroke-dasharray: none; stroke-linecap: butt; stroke-dashoffset: 0; stroke-linejoin: miter; stroke-miterlimit: 4; fill: rgb(255,255,255); fill-rule: nonzero; opacity: 1;" vector-effect="non-scaling-stroke"  transform=" translate(-519.77, -97.72)" d="M 542.87 97.177 Q 542.87 106.587 539.27 112.887 Q 535.67 119.197 528.85 122.377 Q 522.03 125.557 512.44 125.557 L 496.6700000000001 125.557 L 496.6700000000001 69.87700000000001 L 514.1500000000001 69.87700000000001 Q 522.9100000000001 69.87700000000001 529.3500000000001 72.977 Q 535.7800000000001 76.077 539.3200000000002 82.15700000000001 Q 542.8700000000001 88.227 542.8700000000001 97.177 M 530.6000000000001 97.48700000000001 Q 530.6000000000001 91.31700000000001 528.7900000000002 87.337 Q 526.9800000000002 83.357 523.4600000000002 81.447 Q 519.9400000000002 79.547 514.7600000000001 79.547 L 508.4700000000001 79.547 L 508.4700000000001 115.80699999999999 L 513.5400000000001 115.80699999999999 Q 522.19 115.80699999999999 526.3900000000001 111.19699999999999 Q 530.6000000000001 106.58699999999999 530.6000000000001 97.487" stroke-linecap="round" />
</g>
		<g transform="matrix(1 0 0 1 112.52 31.07)"  >
<rect style="stroke: none; stroke-width: 1; stroke-dasharray: none; stroke-linecap: butt; stroke-dashoffset: 0; stroke-linejoin: miter; stroke-miterlimit: 4; fill: none; fill-rule: nonzero; opacity: 1;" vector-effect="non-scaling-stroke"  x="-23.1" y="-27.84" rx="0" ry="0" width="46.2" height="55.68" />
</g>
		<g transform="matrix(1 0 0 1 161.68 30.57)"  >
<path style="stroke: none; stroke-width: 1; stroke-dasharray: none; stroke-linecap: butt; stroke-dashoffset: 0; stroke-linejoin: miter; stroke-miterlimit: 4; fill: rgb(255,255,255); fill-rule: nonzero; opacity: 1;" vector-effect="non-scaling-stroke"  transform=" translate(-569.42, -97.72)" d="M 585.46 125.557 L 553.39 125.557 L 553.39 69.87700000000001 L 585.46 69.87700000000001 L 585.46 79.54700000000001 L 565.2 79.54700000000001 L 565.2 91.77700000000002 L 584.0500000000001 91.77700000000002 L 584.0500000000001 101.44700000000002 L 565.2 101.44700000000002 L 565.2 115.80700000000002 L 585.46 115.80700000000002 Z" stroke-linecap="round" />
</g>
		<g transform="matrix(1 0 0 1 162.16 31.07)"  >
<rect style="stroke: none; stroke-width: 1; stroke-dasharray: none; stroke-linecap: butt; stroke-dashoffset: 0; stroke-linejoin: miter; stroke-miterlimit: 4; fill: none; fill-rule: nonzero; opacity: 1;" vector-effect="non-scaling-stroke"  x="-16.035" y="-27.84" rx="0" ry="0" width="32.07" height="55.68" />
</g>
		<g transform="matrix(1 0 0 1 225.9 30.57)"  >
<path style="stroke: none; stroke-width: 1; stroke-dasharray: none; stroke-linecap: butt; stroke-dashoffset: 0; stroke-linejoin: miter; stroke-miterlimit: 4; fill: rgb(255,255,255); fill-rule: nonzero; opacity: 1;" vector-effect="non-scaling-stroke"  transform=" translate(-633.65, -97.72)" d="M 659 69.877 L 640.07 125.55699999999999 L 627.19 125.55699999999999 L 608.3000000000001 69.87699999999998 L 620.22 69.87699999999998 L 630.7 103.00699999999998 Q 630.96 103.84699999999998 631.57 106.14699999999998 Q 632.1800000000001 108.45699999999998 632.8100000000001 111.02699999999997 Q 633.44 113.59699999999997 633.6700000000001 115.27699999999997 Q 633.9000000000001 113.59699999999997 634.4900000000001 111.04699999999997 Q 635.0800000000002 108.49699999999997 635.6700000000001 106.18699999999997 Q 636.2600000000001 103.88699999999997 636.5200000000001 103.00699999999996 L 647.07 69.87699999999995 Z" stroke-linecap="round" />
</g>
		<g transform="matrix(1 0 0 1 226.4 31.07)"  >
<rect style="stroke: none; stroke-width: 1; stroke-dasharray: none; stroke-linecap: butt; stroke-dashoffset: 0; stroke-linejoin: miter; stroke-miterlimit: 4; fill: none; fill-rule: nonzero; opacity: 1;" vector-effect="non-scaling-stroke"  x="-25.35" y="-27.84" rx="0" ry="0" width="50.7" height="55.68" />
</g>
		<g transform="matrix(1 0 0 1 263.14 30.57)"  >
<path style="stroke: none; stroke-width: 1; stroke-dasharray: none; stroke-linecap: butt; stroke-dashoffset: 0; stroke-linejoin: miter; stroke-miterlimit: 4; fill: rgb(255,255,255); fill-rule: nonzero; opacity: 1;" vector-effect="non-scaling-stroke"  transform=" translate(-670.89, -97.72)" d="M 664.99 125.557 L 664.99 69.87700000000001 L 676.8 69.87700000000001 L 676.8 125.55700000000002 Z" stroke-linecap="round" />
</g>
		<g transform="matrix(1 0 0 1 263.64 31.07)"  >
<rect style="stroke: none; stroke-width: 1; stroke-dasharray: none; stroke-linecap: butt; stroke-dashoffset: 0; stroke-linejoin: miter; stroke-miterlimit: 4; fill: none; fill-rule: nonzero; opacity: 1;" vector-effect="non-scaling-stroke"  x="-5.905" y="-27.84" rx="0" ry="0" width="11.81" height="55.68" />
</g>
		<g transform="matrix(1 0 0 1 301.95 30.45)"  >
<path style="stroke: none; stroke-width: 1; stroke-dasharray: none; stroke-linecap: butt; stroke-dashoffset: 0; stroke-linejoin: miter; stroke-miterlimit: 4; fill: rgb(255,255,255); fill-rule: nonzero; opacity: 1;" vector-effect="non-scaling-stroke"  transform=" translate(-709.7, -97.6)" d="M 723.88 125.557 L 719.85 112.297 L 699.5500000000001 112.297 L 695.5100000000001 125.557 L 682.7900000000001 125.557 L 702.44 69.647 L 716.8800000000001 69.647 L 736.6100000000001 125.557 Z M 717.03 102.397 L 712.99 89.447 Q 712.61 88.157 711.98 86.117 Q 711.35 84.07700000000001 710.73 81.967 Q 710.1 79.857 709.72 78.28699999999999 Q 709.34 79.85699999999999 708.6700000000001 82.157 Q 708.0000000000001 84.45700000000001 707.3900000000001 86.517 Q 706.7800000000001 88.577 706.5200000000001 89.447 L 702.5200000000001 102.397 Z" stroke-linecap="round" />
</g>
		<g transform="matrix(1 0 0 1 302.45 30.95)"  >
<rect style="stroke: none; stroke-width: 1; stroke-dasharray: none; stroke-linecap: butt; stroke-dashoffset: 0; stroke-linejoin: miter; stroke-miterlimit: 4; fill: none; fill-rule: nonzero; opacity: 1;" vector-effect="non-scaling-stroke"  x="-26.91" y="-27.955" rx="0" ry="0" width="53.82" height="55.91" />
</g>
		<g transform="matrix(1 0 0 1 359.55 30.57)"  >
<path style="stroke: none; stroke-width: 1; stroke-dasharray: none; stroke-linecap: butt; stroke-dashoffset: 0; stroke-linejoin: miter; stroke-miterlimit: 4; fill: rgb(255,255,255); fill-rule: nonzero; opacity: 1;" vector-effect="non-scaling-stroke"  transform=" translate(-767.3, -97.72)" d="M 792 125.557 L 776.99 125.557 L 752.77 83.43700000000001 L 752.43 83.43700000000001 Q 752.5799999999999 86.05700000000002 752.6899999999999 88.72700000000002 Q 752.81 91.39700000000002 752.92 94.03700000000002 Q 753.03 96.68700000000003 753.15 99.35700000000003 L 753.15 125.55700000000003 L 742.6 125.55700000000003 L 742.6 69.87700000000004 L 757.49 69.87700000000004 L 781.6800000000001 111.57700000000004 L 781.94 111.57700000000004 Q 781.87 108.98700000000004 781.75 106.43700000000004 Q 781.64 103.88700000000004 781.54 101.33700000000005 Q 781.4499999999999 98.77700000000004 781.37 96.22700000000005 L 781.37 69.87700000000004 L 792 69.87700000000004 Z" stroke-linecap="round" />
</g>
		<g transform="matrix(1 0 0 1 360.05 31.07)"  >
<rect style="stroke: none; stroke-width: 1; stroke-dasharray: none; stroke-linecap: butt; stroke-dashoffset: 0; stroke-linejoin: miter; stroke-miterlimit: 4; fill: none; fill-rule: nonzero; opacity: 1;" vector-effect="non-scaling-stroke"  x="-24.7" y="-27.84" rx="0" ry="0" width="49.4" height="55.68" />
</g>
		<g transform="matrix(1 0 0 1 417.15 30.45)"  >
<path style="stroke: none; stroke-width: 1; stroke-dasharray: none; stroke-linecap: butt; stroke-dashoffset: 0; stroke-linejoin: miter; stroke-miterlimit: 4; fill: rgb(255,255,255); fill-rule: nonzero; opacity: 1;" vector-effect="non-scaling-stroke"  transform=" translate(-824.9, -97.6)" d="M 839.08 125.557 L 835.0500000000001 112.297 L 814.7500000000001 112.297 L 810.7100000000002 125.557 L 797.9900000000001 125.557 L 817.6400000000001 69.647 L 832.0800000000002 69.647 L 851.8100000000002 125.557 Z M 832.23 102.397 L 828.19 89.447 Q 827.8100000000001 88.157 827.1800000000001 86.117 Q 826.5500000000001 84.07700000000001 825.9300000000001 81.967 Q 825.3000000000001 79.857 824.9200000000001 78.28699999999999 Q 824.5400000000001 79.85699999999999 823.8700000000001 82.157 Q 823.2000000000002 84.45700000000001 822.5900000000001 86.517 Q 821.9800000000001 88.577 821.7200000000001 89.447 L 817.7200000000001 102.397 Z" stroke-linecap="round" />
</g>
		<g transform="matrix(1 0 0 1 417.65 30.95)"  >
<rect style="stroke: none; stroke-width: 1; stroke-dasharray: none; stroke-linecap: butt; stroke-dashoffset: 0; stroke-linejoin: miter; stroke-miterlimit: 4; fill: none; fill-rule: nonzero; opacity: 1;" vector-effect="non-scaling-stroke"  x="-26.91" y="-27.955" rx="0" ry="0" width="53.82" height="55.91" />
</g>
		<g transform="matrix(1 0 0 1 -319.56 0.85)"  >
<path style="stroke: none; stroke-width: 1; stroke-dasharray: none; stroke-linecap: butt; stroke-dashoffset: 0; stroke-linejoin: miter; stroke-miterlimit: 4; fill: rgb(255,255,255); fill-rule: nonzero; opacity: 1;" vector-effect="non-scaling-stroke"  transform=" translate(-88.19, -68)" d="M 160.87 76.39 C 156.37348125348052 76.39523063322278 151.95767049081053 77.5848058359447 148.067 79.839 L 131.976 89.985 L 131.964 89.988 C 126.85209335384576 93.22926953176695 120.76702583781712 94.57930544113702 114.764 93.804 L 39.64099999999999 87.308 C 38.440356006376184 87.18429779466025 37.54600021822596 86.14338216312831 37.60452352164475 84.9378021127012 C 37.663046825063546 83.73222206227412 38.654019625727436 82.7828272360244 39.86099999999999 82.77600000000001 L 110.05899999999998 83.08100000000002 C 111.78571827034595 83.07492486775188 113.18057513224812 81.67021827034598 113.17449999999998 79.94350000000001 C 113.16842486775184 78.21678172965404 111.76371827034595 76.82192486775187 110.03699999999998 76.82800000000002 L 39.838999999999984 75.95300000000002 C 38.583656763634586 75.95741827799867 37.56241827799863 74.94334323636541 37.557999999999986 73.68800000000002 C 37.55358172200134 72.43265676363461 38.56765676363459 71.41141827799866 39.822999999999986 71.40700000000001 L 110.01999999999998 71.15200000000002 C 111.74671827034595 71.14509644062713 113.14090355937286 69.73971827034599 113.13399999999997 68.01300000000002 C 113.1270964406271 66.28628172965404 111.72171827034595 64.89209644062713 109.99499999999998 64.89900000000002 L 39.79999999999998 65.15400000000001 C 38.54382833650984 65.15869442037358 37.52169442037354 64.14417166349016 37.51699999999998 62.88800000000001 C 37.51230557962642 61.63182833650987 38.52682833650984 60.60969442037357 39.78299999999998 60.60500000000001 L 109.97499999999997 59.22000000000001 C 111.6579441165048 59.154151158694894 112.9866109857774 57.76760610360414 112.98068442282329 56.083384667737995 C 112.97475785986919 54.39916323187185 111.63636586080517 53.02200322078356 109.95299999999996 52.96800000000001 L 39.75799999999997 53.78500000000001 C 38.54307665244753 53.80297194615095 37.53020843794314 52.85949960478769 37.46205131257721 51.646356440302014 C 37.39389418721128 50.43321327581634 38.29470914551991 49.38222588780533 39.50399999999997 49.26400000000001 L 114.57699999999997 42.21400000000001 C 115.70553589173763 42.07135930884086 116.84151754079595 41.99556041573791 117.97899999999998 41.98700000000001 C 122.86459473735303 41.96571112563353 127.6566253427888 43.32639405454444 131.80199999999996 45.912000000000006 L 131.81299999999996 45.91200000000001 L 147.97799999999995 55.94700000000002 C 151.88547865758713 58.17562948627624 156.30968349216272 59.33909535625738 160.80799999999996 59.32100000000001 L 198.42399999999998 56.89800000000002 C 200.38199999999998 36.039000000000016 215.32999999999998 17.704000000000015 212.933 16.19300000000002 C 202.1 9.373000000000019 185.941 53.228000000000016 179.03699999999998 53.04900000000002 C 171.76899999999998 52.85900000000002 143.07699999999997 11.40900000000002 70.04499999999997 11.40900000000002 C 66.39099999999998 11.40900000000002 62.180999999999976 11.84600000000002 57.60099999999997 12.66900000000002 C 60.10199999999997 7.96500000000002 63.45699999999997 3.2350000000000207 61.114999999999974 1.9310000000000205 C 57.78899999999997 0.08500000000002039 44.144999999999975 9.58000000000002 35.06399999999998 18.731000000000023 C 1.518 30.357 -36.812 54.05 -36.812 76.907 C -36.812 83.05 -23.808999999999997 82.51299999999999 -23.184999999999995 86.589 C -22.163999999999994 93.247 -30.004999999999995 98.289 -23.544999999999995 101.29599999999999 C -9.632999999999994 107.773 16.474000000000004 115.10799999999999 37.27100000000001 119.62599999999999 C 46.71300000000001 127.18199999999999 69.393 137.718 71.41600000000001 133.22199999999998 C 71.88300000000001 132.19199999999998 66.25200000000001 128.22599999999997 62.09200000000001 123.79699999999998 C 63.387000000000015 123.89199999999998 64.50900000000001 123.92899999999999 65.412 123.89499999999998 C 120.654 121.83599999999998 165.812 91.76999999999998 177.957 81.82499999999999 C 178.35399999999998 81.66299999999998 178.71699999999998 81.573 179.031 81.56499999999998 C 185.93800000000002 81.38799999999998 202.097 125.24399999999999 212.93 118.42499999999998 C 215.29600000000002 116.93799999999999 200.77100000000002 99.05199999999998 198.51000000000002 78.53199999999998 z M 12.201 59.15 C 9.990240503692467 59.150000038933726 7.947414469960707 57.970573910430005 6.8420347105677415 56.05600003145894 C 5.736654951174776 54.14142615248789 5.736654951174775 51.78257384751212 6.84203471056774 49.867999968541056 C 7.947414469960704 47.953426089569994 9.990240503692464 46.773999961066274 12.200999999999997 46.774 C 15.61853798939479 46.774000060186324 18.388999891023015 49.54446201060521 18.388999891023015 52.961999999999996 C 18.38899989102302 56.37953798939479 15.61853798939479 59.149999939813675 12.201 59.15" stroke-linecap="round" />
</g>
</g>
</g>
</svg>